export default {"glyphs":{"0":{"ha":860,"x_min":0,"x_max":0,"o":"m 228 450 b 292 193 228 336 249 249 b 431 126 322 153 365 126 b 569 193 496 126 538 153 b 632 450 613 249 632 336 b 569 707 632 564 613 651 b 431 774 538 747 496 774 b 292 707 365 774 322 747 b 228 450 247 651 228 564 m 63 450 b 143 774 63 569 82 682 b 431 921 201 861 296 921 b 717 774 565 921 658 861 b 797 450 778 682 797 569 b 717 126 797 331 778 218 b 431 -21 658 39 565 -21 b 143 126 296 -21 201 39 b 63 450 82 218 63 331 "},"1":{"ha":522,"x_min":0,"x_max":0,"o":"m 257 0 l 257 617 l 39 617 l 39 731 b 276 900 168 733 257 806 l 421 900 l 421 0 "},"2":{"ha":746,"x_min":0,"x_max":0,"o":"m 58 574 b 54 625 57 586 54 607 b 375 921 54 781 171 921 b 692 638 574 921 692 792 b 518 358 692 521 626 425 l 343 250 b 251 147 300 224 264 192 l 697 147 l 697 0 l 46 0 b 260 372 49 154 103 275 l 408 465 b 524 635 489 515 524 569 b 372 775 524 708 474 775 b 215 608 267 775 215 701 b 219 563 215 594 218 578 "},"3":{"ha":765,"x_min":0,"x_max":0,"o":"m 228 532 l 476 754 l 67 754 l 67 900 l 692 900 l 692 761 l 447 547 b 717 274 582 544 717 447 b 379 -21 717 119 593 -21 b 36 264 171 -21 47 114 l 199 297 b 378 122 203 193 278 122 b 549 275 488 122 549 193 b 389 424 549 379 465 424 b 304 408 346 424 318 415 "},"4":{"ha":815,"x_min":0,"x_max":0,"o":"m 46 378 l 429 900 l 643 900 l 643 344 l 794 344 l 794 197 l 643 197 l 643 0 l 479 0 l 479 197 l 46 197 m 479 732 l 196 344 l 479 344 "},"5":{"ha":765,"x_min":0,"x_max":0,"o":"m 201 289 b 383 121 208 193 279 121 b 554 285 478 121 554 185 b 381 451 554 396 472 451 b 231 389 317 451 263 425 l 74 446 l 185 900 l 678 900 l 678 754 l 297 754 l 242 526 b 414 589 281 567 350 589 b 722 289 593 589 722 478 b 383 -22 722 119 592 -22 b 44 249 189 -22 56 107 "},"6":{"ha":807,"x_min":0,"x_max":0,"o":"m 692 740 b 538 776 658 758 611 776 b 231 489 368 776 246 664 b 460 596 278 561 364 596 b 765 292 639 596 765 476 b 424 -21 765 104 613 -21 b 64 397 194 -21 64 167 b 547 921 64 724 268 921 b 739 876 631 921 700 901 m 249 289 b 424 121 249 186 332 121 b 599 289 518 121 599 185 b 424 457 599 394 518 457 b 249 289 329 457 249 394 "},"7":{"ha":686,"x_min":0,"x_max":0,"o":"m 679 754 b 310 0 604 692 350 464 l 138 0 b 490 754 176 503 490 754 l 7 754 l 7 900 l 679 900 "},"8":{"ha":785,"x_min":0,"x_max":0,"o":"m 392 525 b 540 657 482 526 540 582 b 392 785 540 725 483 785 b 244 657 300 785 244 725 b 392 525 244 582 303 526 m 392 119 b 561 257 501 119 561 183 b 392 396 561 331 501 396 b 224 257 283 396 224 331 b 392 119 224 183 283 119 m 392 -21 b 58 240 186 -21 58 90 b 225 461 58 343 129 428 b 79 667 139 493 79 578 b 392 921 79 817 211 921 b 706 667 572 921 706 817 b 560 461 706 579 646 493 b 726 240 654 428 726 343 b 392 -21 726 90 599 -21 "},"9":{"ha":808,"x_min":0,"x_max":0,"o":"m 122 167 b 283 125 157 144 224 125 b 582 408 472 125 574 239 b 363 304 549 350 469 304 b 51 607 200 304 51 415 b 390 921 51 793 201 921 b 746 500 578 921 746 788 b 285 -21 746 174 590 -21 b 76 31 211 -21 122 0 m 560 613 b 388 779 560 713 478 779 b 215 613 296 779 215 714 b 388 444 215 507 294 444 b 560 613 478 444 560 510 "}," ":{"ha":344,"x_min":0,"x_max":0,"o":""},"!":{"ha":450,"x_min":0,"x_max":0,"o":"m 283 292 l 167 292 l 126 985 l 322 985 m 124 92 b 224 194 124 147 168 194 b 326 92 281 194 326 147 b 224 -10 326 36 281 -10 b 124 92 168 -10 124 36 "},".":{"ha":411,"x_min":0,"x_max":0,"o":"m 93 104 b 206 218 93 167 143 218 b 319 104 268 218 319 167 b 206 -8 319 42 268 -8 b 93 104 143 -8 93 42 "},":":{"ha":419,"x_min":0,"x_max":0,"o":"m 99 103 b 211 215 99 165 149 215 b 324 103 272 215 324 165 b 211 -8 324 42 272 -8 b 99 103 149 -8 99 42 m 97 572 b 210 685 97 635 147 685 b 322 572 271 685 322 635 b 210 461 322 511 271 461 b 97 572 147 461 97 511 "},"?":{"ha":722,"x_min":0,"x_max":0,"o":"m 271 292 b 268 344 269 310 268 325 b 381 554 268 428 300 496 l 444 600 b 510 721 490 633 510 674 b 360 861 510 793 461 861 b 203 703 257 861 203 782 b 211 640 203 682 206 656 l 54 651 b 46 715 49 671 46 693 b 360 1006 46 854 150 1006 b 676 728 565 1006 676 869 b 538 483 676 618 618 540 l 478 442 b 408 310 432 410 408 364 b 410 292 408 307 408 300 m 240 92 b 342 194 240 147 285 194 b 443 92 397 194 443 147 b 342 -10 443 36 397 -10 b 240 92 285 -10 240 36 "},"A":{"ha":988,"x_min":0,"x_max":0,"o":"m 699 247 l 282 247 l 190 0 l 14 0 l 397 985 l 590 985 l 974 0 l 792 0 m 340 401 l 640 401 l 490 804 "},"B":{"ha":843,"x_min":0,"x_max":0,"o":"m 457 985 b 757 719 646 985 757 874 b 611 507 757 615 696 538 b 788 272 715 479 788 389 b 482 0 788 114 665 0 l 118 0 l 118 985 m 435 568 b 590 706 532 568 590 624 b 431 843 590 789 532 843 l 283 843 l 283 568 m 453 142 b 618 283 553 142 618 196 b 458 428 618 368 561 428 l 283 428 l 283 142 "},"C":{"ha":1053,"x_min":0,"x_max":0,"o":"m 556 -21 b 58 492 290 -21 58 171 b 554 1006 58 813 299 1006 b 997 686 804 1006 953 858 l 840 633 b 554 849 811 753 719 849 b 229 492 392 849 229 731 b 556 139 229 261 388 139 b 849 356 721 139 815 244 l 1001 306 b 556 -21 957 139 807 -21 "},"D":{"ha":1003,"x_min":0,"x_max":0,"o":"m 460 153 b 772 490 631 153 772 263 b 461 832 772 721 632 832 l 285 832 l 285 153 m 118 0 l 118 985 l 467 985 b 946 490 735 985 946 807 b 465 0 946 175 732 0 "},"E":{"ha":808,"x_min":0,"x_max":0,"o":"m 118 0 l 118 985 l 726 985 l 726 829 l 285 829 l 285 568 l 685 568 l 685 417 l 285 417 l 285 156 l 726 156 l 726 0 "},"F":{"ha":774,"x_min":0,"x_max":0,"o":"m 118 0 l 118 985 l 731 985 l 731 828 l 285 828 l 285 551 l 685 551 l 685 397 l 285 397 l 285 0 "},"G":{"ha":1075,"x_min":0,"x_max":0,"o":"m 857 0 l 844 125 b 543 -21 801 53 700 -21 b 58 493 286 -21 58 168 b 554 1006 58 817 299 1006 b 999 706 793 1006 946 868 l 842 646 b 554 851 808 757 711 851 b 228 493 394 851 228 738 b 553 132 228 253 383 132 b 835 353 751 132 826 268 l 510 353 l 510 499 l 992 499 l 992 0 "},"H":{"ha":1033,"x_min":0,"x_max":0,"o":"m 747 0 l 747 421 l 285 421 l 285 0 l 118 0 l 118 985 l 285 985 l 285 578 l 747 578 l 747 985 l 915 985 l 915 0 "},"I":{"ha":406,"x_min":0,"x_max":0,"o":"m 118 0 l 118 985 l 288 985 l 288 0 "},"J":{"ha":760,"x_min":0,"x_max":0,"o":"m 28 361 l 190 394 l 190 303 b 342 136 190 188 256 136 b 486 296 431 136 486 196 l 486 985 l 653 985 l 653 300 b 343 -21 653 125 531 -21 b 28 297 150 -21 28 106 "},"K":{"ha":951,"x_min":0,"x_max":0,"o":"m 415 426 l 285 283 l 285 0 l 118 0 l 118 985 l 285 985 l 285 513 l 708 985 l 928 985 l 529 550 l 932 0 l 722 0 "},"L":{"ha":771,"x_min":0,"x_max":0,"o":"m 118 0 l 118 985 l 285 985 l 285 158 l 736 158 l 736 0 "},"M":{"ha":1319,"x_min":0,"x_max":0,"o":"m 1036 0 l 1036 725 l 729 0 l 585 0 l 281 722 l 281 0 l 118 0 l 118 985 l 340 985 l 660 233 l 975 985 l 1201 985 l 1201 0 "},"N":{"ha":1063,"x_min":0,"x_max":0,"o":"m 771 0 l 285 746 l 285 0 l 118 0 l 118 985 l 331 985 l 778 286 l 778 985 l 944 985 l 944 0 "},"O":{"ha":1118,"x_min":0,"x_max":0,"o":"m 229 493 b 558 138 229 256 393 138 b 889 493 725 138 889 256 b 558 849 889 731 725 849 b 229 493 393 849 229 731 m 58 493 b 558 1006 58 815 300 1006 b 1060 493 817 1006 1060 815 b 558 -21 1060 169 817 -21 b 58 493 300 -21 58 169 "},"P":{"ha":836,"x_min":0,"x_max":0,"o":"m 458 532 b 628 683 564 532 628 590 b 458 838 628 778 564 838 l 285 838 l 285 532 m 285 385 l 285 0 l 118 0 l 118 985 l 483 985 b 797 685 672 985 797 857 b 483 385 797 511 672 385 "},"Q":{"ha":1118,"x_min":0,"x_max":0,"o":"m 58 493 b 558 1006 58 815 300 1006 b 1060 493 817 1006 1060 815 b 932 142 1060 347 1010 228 l 1049 11 l 936 -85 l 815 47 b 558 -21 739 3 649 -21 b 58 493 300 -21 58 169 m 229 493 b 558 138 229 256 393 138 b 706 169 608 138 660 147 l 543 350 l 657 447 l 821 265 b 889 493 863 322 889 397 b 558 849 889 731 725 849 b 229 493 393 849 229 731 "},"R":{"ha":864,"x_min":0,"x_max":0,"o":"m 408 389 l 286 389 l 286 0 l 118 0 l 118 985 l 496 985 b 804 686 686 985 804 853 b 582 406 804 546 719 439 l 804 0 l 615 0 m 465 536 b 635 686 568 536 635 596 b 465 838 635 778 568 838 l 286 838 l 286 536 "},"S":{"ha":832,"x_min":0,"x_max":0,"o":"m 615 707 b 422 858 606 768 554 858 b 253 717 322 858 253 792 b 368 590 253 654 292 607 l 510 561 b 776 278 683 526 776 417 b 428 -21 776 125 653 -21 b 47 282 178 -21 63 140 l 203 326 b 428 129 213 224 286 129 b 607 265 546 129 607 189 b 475 399 607 329 560 381 l 336 428 b 86 704 186 458 86 557 b 421 1006 86 869 238 1006 b 765 754 653 1006 743 864 "},"T":{"ha":843,"x_min":0,"x_max":0,"o":"m 504 828 l 504 0 l 338 0 l 338 828 l 18 828 l 18 985 l 825 985 l 825 828 "},"U":{"ha":949,"x_min":0,"x_max":0,"o":"m 474 -21 b 107 343 268 -21 107 106 l 107 985 l 272 985 l 272 353 b 474 138 272 214 349 138 b 675 353 600 138 675 214 l 675 985 l 842 985 l 842 343 b 474 -21 842 106 681 -21 "},"V":{"ha":936,"x_min":0,"x_max":0,"o":"m 746 985 l 922 985 l 550 0 l 381 0 l 14 985 l 194 985 l 469 218 "},"W":{"ha":1413,"x_min":0,"x_max":0,"o":"m 1222 985 l 1394 985 l 1118 0 l 946 0 l 707 744 l 468 0 l 297 0 l 18 985 l 193 985 l 390 265 l 621 985 l 794 985 l 1029 260 "},"X":{"ha":897,"x_min":0,"x_max":0,"o":"m 549 492 l 875 0 l 675 0 l 446 360 l 214 0 l 18 0 l 347 493 l 21 985 l 221 985 l 450 624 l 681 985 l 876 985 "},"Y":{"ha":886,"x_min":0,"x_max":0,"o":"m 14 985 l 211 985 l 447 572 l 685 985 l 872 985 l 525 417 l 525 0 l 358 0 l 358 417 "},"Z":{"ha":883,"x_min":0,"x_max":0,"o":"m 58 0 l 58 164 l 604 828 l 74 828 l 74 985 l 819 985 l 819 826 l 267 158 l 826 158 l 826 0 "},"a":{"ha":739,"x_min":0,"x_max":0,"o":"m 63 183 b 267 388 63 304 151 371 l 440 414 b 490 463 479 419 490 439 b 363 565 490 519 451 565 b 224 443 278 565 231 511 l 76 476 b 361 697 89 593 194 697 b 649 444 569 697 649 579 l 649 108 b 657 0 649 47 656 7 l 507 0 b 500 86 506 4 500 32 b 292 -21 468 35 401 -21 b 63 183 150 -21 63 76 m 322 106 b 490 281 413 106 490 149 l 490 311 l 314 285 b 224 193 264 276 224 249 b 322 106 224 147 258 106 "},"b":{"ha":839,"x_min":0,"x_max":0,"o":"m 104 0 l 104 1006 l 263 1006 l 263 593 b 475 694 293 646 371 694 b 788 342 678 694 788 540 b 469 -17 788 138 667 -17 b 261 90 374 -17 300 25 l 261 0 m 625 340 b 443 551 625 475 550 551 b 261 340 340 551 261 475 b 443 126 261 207 340 126 b 625 340 549 126 625 207 "},"c":{"ha":751,"x_min":0,"x_max":0,"o":"m 399 549 b 213 339 300 549 213 475 b 401 126 213 203 300 126 b 571 251 507 126 556 200 l 713 200 b 401 -21 681 94 579 -21 b 51 339 203 -21 51 133 b 397 697 51 547 203 697 b 707 475 579 697 679 583 l 563 422 b 399 549 547 482 501 549 "},"d":{"ha":836,"x_min":0,"x_max":0,"o":"m 213 340 b 394 125 213 211 285 125 b 574 342 500 125 574 213 b 396 551 574 471 501 551 b 213 340 290 551 213 469 m 729 124 b 736 0 729 63 735 11 l 582 0 b 575 88 579 15 575 60 b 376 -17 543 31 472 -17 b 51 340 182 -17 51 136 b 374 694 51 535 183 694 b 572 597 492 694 551 640 l 572 1006 l 729 1006 "},"e":{"ha":761,"x_min":0,"x_max":0,"o":"m 549 413 b 382 563 546 492 493 563 b 217 413 281 563 222 485 m 703 193 b 397 -21 667 75 560 -21 b 51 342 214 -21 51 113 b 381 697 51 556 210 697 b 711 346 589 697 711 560 b 707 294 711 319 708 297 l 213 294 b 397 118 217 192 297 118 b 567 236 494 118 544 169 "},"f":{"ha":486,"x_min":0,"x_max":0,"o":"m 404 868 b 304 765 361 868 304 849 l 304 676 l 461 676 l 461 536 l 304 536 l 304 0 l 142 0 l 142 536 l 24 536 l 24 676 l 142 676 l 142 769 b 378 1013 142 921 239 1013 b 463 999 418 1013 451 1004 l 463 861 b 404 868 453 864 435 868 "},"g":{"ha":818,"x_min":0,"x_max":0,"o":"m 204 1 b 374 -144 215 -82 281 -144 b 565 58 501 -144 565 -79 l 565 129 b 369 31 536 76 468 31 b 57 360 189 31 57 169 b 369 689 57 540 183 689 b 569 590 475 689 540 646 l 569 676 l 725 676 l 725 64 b 378 -285 725 -117 632 -285 b 56 -37 199 -285 74 -174 m 396 168 b 569 360 499 168 569 243 b 396 550 569 475 496 550 b 219 360 293 550 219 475 b 396 168 219 242 290 168 "},"h":{"ha":797,"x_min":0,"x_max":0,"o":"m 265 0 l 104 0 l 104 1006 l 265 1006 l 265 611 b 458 696 311 671 388 696 b 706 428 625 696 706 576 l 706 0 l 544 0 l 544 400 b 406 550 544 483 507 550 b 265 397 317 550 268 483 "},"i":{"ha":368,"x_min":0,"x_max":0,"o":"m 104 0 l 104 676 l 264 676 l 264 0 m 79 914 b 183 1019 79 972 126 1019 b 289 914 242 1019 289 972 b 183 810 289 856 242 810 b 79 914 126 810 79 856 "},"j":{"ha":369,"x_min":0,"x_max":0,"o":"m 104 676 l 265 676 l 265 -68 b 64 -285 265 -194 189 -285 b -28 -272 10 -285 -21 -275 l -28 -139 b 21 -143 -21 -140 3 -143 b 104 -56 82 -143 104 -111 m 79 915 b 183 1021 79 974 126 1021 b 289 915 242 1021 289 974 b 183 811 289 858 242 811 b 79 915 126 811 79 858 "},"k":{"ha":756,"x_min":0,"x_max":0,"o":"m 460 390 l 743 0 l 546 0 l 347 276 l 264 189 l 264 0 l 104 0 l 104 1006 l 264 1006 l 264 403 l 524 676 l 738 676 "},"l":{"ha":369,"x_min":0,"x_max":0,"o":"m 104 0 l 104 1006 l 265 1006 l 265 0 "},"m":{"ha":1213,"x_min":0,"x_max":0,"o":"m 104 0 l 104 676 l 258 676 l 258 590 b 458 696 297 660 382 696 b 661 576 547 696 625 656 b 881 696 714 665 793 696 b 1119 439 1003 696 1119 618 l 1119 0 l 964 0 l 964 413 b 833 551 964 492 924 551 b 693 401 749 551 693 485 l 693 0 l 535 0 l 535 413 b 404 551 535 490 496 551 b 264 401 318 551 264 488 l 264 0 "},"n":{"ha":797,"x_min":0,"x_max":0,"o":"m 265 0 l 104 0 l 104 676 l 261 676 l 261 586 b 461 696 306 664 386 696 b 706 428 626 696 706 576 l 706 0 l 544 0 l 544 400 b 406 550 544 483 507 550 b 265 390 314 550 265 479 "},"o":{"ha":804,"x_min":0,"x_max":0,"o":"m 401 124 b 590 339 501 124 590 197 b 401 551 590 479 501 551 b 213 339 303 551 213 479 b 401 124 213 199 303 124 m 401 697 b 753 339 604 697 753 546 b 401 -21 753 131 604 -21 b 51 339 200 -21 51 131 b 401 697 51 546 200 697 "},"p":{"ha":839,"x_min":0,"x_max":0,"o":"m 104 -264 l 104 676 l 260 676 l 260 585 b 475 692 293 643 371 692 b 788 339 675 692 788 539 b 469 -17 788 136 664 -17 b 264 76 372 -17 299 25 l 264 -264 m 626 339 b 444 549 626 465 553 549 b 263 339 339 549 263 465 b 444 126 263 210 339 126 b 626 339 551 126 626 210 "},"q":{"ha":828,"x_min":0,"x_max":0,"o":"m 575 -264 l 575 81 b 376 -17 542 21 471 -17 b 51 340 183 -17 51 139 b 372 693 51 535 175 693 b 579 586 490 693 556 635 l 579 676 l 733 676 l 733 -264 m 214 340 b 394 125 214 211 289 125 b 576 340 500 125 576 211 b 394 550 576 469 500 550 b 214 340 288 550 214 469 "},"r":{"ha":528,"x_min":0,"x_max":0,"o":"m 500 517 b 447 521 482 519 464 521 b 265 322 322 521 265 449 l 265 0 l 104 0 l 104 676 l 261 676 l 261 568 b 457 685 293 642 368 685 b 500 681 476 685 493 682 "},"s":{"ha":635,"x_min":0,"x_max":0,"o":"m 185 222 b 322 107 190 161 236 107 b 424 185 389 107 424 143 b 344 260 424 221 399 249 l 244 282 b 63 479 125 308 63 386 b 311 697 63 597 171 697 b 572 508 500 697 561 575 l 436 469 b 311 571 431 508 401 571 b 214 493 254 571 214 535 b 282 422 214 457 240 431 l 385 401 b 579 196 513 374 579 296 b 324 -21 579 93 496 -21 b 44 183 128 -21 53 107 "},"t":{"ha":507,"x_min":0,"x_max":0,"o":"m 308 676 l 449 676 l 449 533 l 308 533 l 308 219 b 394 135 308 160 335 135 b 450 140 417 135 443 139 l 450 7 b 351 -8 440 3 410 -8 b 149 193 226 -8 149 67 l 149 533 l 24 533 l 24 676 l 58 676 b 163 782 131 676 163 722 l 163 883 l 308 883 "},"u":{"ha":801,"x_min":0,"x_max":0,"o":"m 544 75 b 353 -19 511 14 432 -19 b 97 250 192 -19 97 100 l 97 676 l 258 676 l 258 279 b 394 125 258 196 297 125 b 536 276 488 125 536 188 l 536 676 l 697 676 l 697 124 b 704 0 697 68 701 25 l 550 0 b 544 75 547 15 544 47 "},"v":{"ha":729,"x_min":0,"x_max":0,"o":"m 450 0 l 289 0 l 14 676 l 192 676 l 371 193 l 546 676 l 715 676 "},"w":{"ha":1131,"x_min":0,"x_max":0,"o":"m 654 676 l 814 208 l 949 676 l 1113 676 l 896 0 l 735 0 l 567 486 l 403 0 l 238 0 l 18 676 l 190 676 l 328 208 l 488 676 "},"x":{"ha":713,"x_min":0,"x_max":0,"o":"m 261 342 l 19 676 l 211 676 b 360 460 224 656 347 479 l 507 676 l 690 676 l 453 344 l 699 0 l 510 0 l 353 226 b 200 0 339 206 213 21 l 15 0 "},"y":{"ha":754,"x_min":0,"x_max":0,"o":"m 138 -274 l 300 81 l 11 676 l 193 676 l 388 249 l 569 676 l 740 676 l 310 -274 "},"z":{"ha":658,"x_min":0,"x_max":0,"o":"m 53 0 l 53 140 l 396 535 l 60 535 l 60 676 l 599 676 l 599 540 l 251 142 l 606 142 l 606 0 "}}}
